<?xml version="1.0" encoding="UTF-8" standalone="no"?>
<!DOCTYPE svg PUBLIC "-//W3C//DTD SVG 1.1//EN" "http://www.w3.org/Graphics/SVG/1.1/DTD/svg11.dtd">
<svg width="100%" height="100%" viewBox="0 0 300 200" version="1.1" xmlns="http://www.w3.org/2000/svg" xmlns:xlink="http://www.w3.org/1999/xlink" xml:space="preserve" xmlns:serif="http://www.serif.com/" style="fill-rule:evenodd;clip-rule:evenodd;stroke-miterlimit:2;">
    <g>
        <g id="Forward--small-" serif:id="Forward (small)" transform="matrix(2.22045e-16,-3.63209,3.63209,2.22045e-16,-654.818,1158.63)">
            <path d="M311.2,217.5L300,206.5L300,213L286,213L286,222L300,222L300,228.5L311.2,217.5Z" style="fill:rgb(39,39,39);fill-opacity:0.7;fill-rule:nonzero;"/>
        </g>
        <g transform="matrix(-1.35048,0.00656694,-0.015639,-3.21614,307.145,104.201)">
            <path d="M132.409,24.456L130.488,24.456L130.968,24.144L131.929,24.144L132.409,24.456Z" style="fill:rgb(39,211,107);stroke:rgb(39,211,107);stroke-width:0.29px;"/>
        </g>
        <g id="Forward--small-1" serif:id="Forward (small)" transform="matrix(2.22401e-16,-3.63209,3.63209,2.22401e-16,-659.43,1156.35)">
            <path d="M311.2,217.5L300,206.5L300,213L286,213L286,222L300,222L300,228.5L311.2,217.5Z" style="fill:rgb(39,211,107);fill-rule:nonzero;"/>
        </g>
        <g id="Forward--small-2" serif:id="Forward (small)" transform="matrix(2.22401e-16,-3.63209,3.63209,2.22401e-16,-662.04,1156.35)">
            <path d="M311.2,217.5L300,206.5L300,213L286,213L286,222L300,222L300,228.5L311.2,217.5Z" style="fill:rgb(0,255,101);fill-rule:nonzero;"/>
        </g>
    </g>
    <g>
        <g id="Forward--small-3" serif:id="Forward (small)" transform="matrix(2.18575e-16,3.63209,3.63209,-2.25514e-16,-615.866,-957.919)">
            <path d="M311.2,217.5L300,206.5L300,213L286,213L286,222L300,222L300,228.5L311.2,217.5Z" style="fill:rgb(39,39,39);fill-opacity:0.69;fill-rule:nonzero;"/>
        </g>
        <g id="Forward--small-4" serif:id="Forward (small)" transform="matrix(2.22401e-16,3.63209,3.63209,-2.22401e-16,-620.478,-955.641)">
            <path d="M311.2,217.5L300,206.5L300,213L286,213L286,222L300,222L300,228.5L311.2,217.5Z" style="fill:rgb(39,211,107);fill-rule:nonzero;"/>
        </g>
        <g transform="matrix(-1.35048,-0.00656694,-0.015639,3.21614,346.096,96.5085)">
            <path d="M132.409,24.456L130.488,24.456L130.968,24.144L131.929,24.144L132.409,24.456Z" style="fill:rgb(39,211,107);stroke:rgb(39,211,107);stroke-width:0.29px;"/>
        </g>
        <g id="Forward--small-5" serif:id="Forward (small)" transform="matrix(2.22401e-16,3.63209,3.63209,-2.22401e-16,-623.088,-955.641)">
            <path d="M311.2,217.5L300,206.5L300,213L286,213L286,222L300,222L300,228.5L311.2,217.5Z" style="fill:rgb(0,255,101);fill-rule:nonzero;"/>
        </g>
    </g>
</svg>
