<?xml version="1.0" encoding="UTF-8" standalone="no"?>
<!DOCTYPE svg PUBLIC "-//W3C//DTD SVG 1.1//EN" "http://www.w3.org/Graphics/SVG/1.1/DTD/svg11.dtd">
<svg width="100%" height="100%" viewBox="0 0 250 250" version="1.1" xmlns="http://www.w3.org/2000/svg" xmlns:xlink="http://www.w3.org/1999/xlink" xml:space="preserve" xmlns:serif="http://www.serif.com/" style="fill-rule:evenodd;clip-rule:evenodd;stroke-linecap:round;stroke-linejoin:round;stroke-miterlimit:1.5;">
    <g transform="matrix(1,0,0,1,-81.3305,-65.2061)">
        <g transform="matrix(0.361536,0,0,0.361536,20.8894,55.1913)">
            <circle cx="512.462" cy="381.299" r="246.608" style="fill:none;stroke:black;stroke-width:24.37px;"/>
        </g>
        <g transform="matrix(1,0,0,1,-418.452,-172.24)">
            <path d="M578.558,313.557C586.954,311.776 595.353,310.077 603.724,308.181C611.222,306.483 618.561,304.593 626.198,303.595C630.576,303.024 633.666,299.005 633.095,294.627C632.523,290.249 628.504,287.158 624.126,287.73C615.994,288.792 608.173,290.768 600.189,292.577C591.89,294.457 583.563,296.14 575.239,297.905C570.92,298.821 568.157,303.071 569.073,307.39C569.989,311.71 574.239,314.473 578.558,313.557Z" style="fill:rgb(39,211,107);"/>
        </g>
        <g transform="matrix(1,0,0,1,-418.452,-172.24)">
            <path d="M687.262,268.959C686.702,269.266 686.14,269.569 685.582,269.88C681.727,272.032 680.343,276.909 682.495,280.764C684.647,284.62 689.524,286.003 693.38,283.851C693.903,283.559 694.431,283.275 694.956,282.987C698.828,280.863 700.247,275.997 698.123,272.125C696,268.254 691.133,266.835 687.262,268.959Z" style="fill:rgb(39,211,107);"/>
        </g>
        <g transform="matrix(1,0,0,1,-418.452,-172.24)">
            <path d="M684.634,372.135C684.951,372.233 685.266,372.336 685.581,372.439" style="fill:rgb(0,255,101);"/>
            <path d="M682.265,379.777C682.544,379.863 682.821,379.953 683.098,380.044C687.295,381.414 691.816,379.119 693.186,374.922C694.557,370.725 692.262,366.205 688.065,364.834C687.711,364.719 687.358,364.604 687.002,364.494C682.785,363.187 678.3,365.549 676.993,369.767C675.685,373.984 678.048,378.469 682.265,379.777Z" style="fill:rgb(39,211,107);"/>
        </g>
        <g transform="matrix(1,0,0,1,-418.452,-172.24)">
            <path d="M574.817,371.642C574.415,372.638 574.235,373.687 574.252,374.782C574.275,376.203 574.482,379.728 579.058,382.239C580.417,382.985 582.467,383.951 584.958,385.045C584.994,385.781 585.163,386.708 585.646,387.807C586.52,389.796 588.288,391.808 589.782,393.504C590.38,395.236 590.538,397.191 590.566,398.961C590.616,402.037 589.832,404.958 589.111,407.887C588.077,412.086 587.093,416.292 587.061,420.678C587.048,422.42 587.084,424.237 587.347,426.001C583.543,429.354 578.115,434.163 575.12,436.913C573.695,437.676 559.172,445.458 556.378,447.03C551.068,450.017 551.727,455.225 551.767,455.504C552.071,457.646 553.079,459.437 554.918,460.803C555.864,461.506 557.564,462.593 560.376,462.353C560.663,462.329 561.578,462.282 563.012,461.678C564.097,461.221 569.265,458.717 581.552,452.617C585.958,450.429 613.352,441.596 618.25,441.183C638.735,439.454 659.09,429.849 679.395,426.524C686.175,425.413 693.226,423.954 699.64,421.388C700.569,421.017 701.48,420.619 702.368,420.172C704.084,420.201 706.633,420.227 707.222,420.15C712.956,419.405 714.012,414.763 714.225,413.478C714.234,413.425 714.814,405.655 707.694,404.284L702.637,403.332C702.119,403.194 701.605,403.032 701.094,402.869C697.925,401.86 694.778,400.819 691.577,399.91C682.693,397.388 673.703,395.109 664.637,393.34L663.66,393.156C662.878,390.97 661.156,389.141 658.799,388.306C655.405,387.104 643.273,384.454 639.82,383.461C634.006,381.789 627.859,379.956 622.179,377.389C621.284,376.626 620.363,375.951 619.442,375.382C617.981,374.48 616.431,373.74 614.849,373.082C614.359,372.878 613.865,372.687 613.367,372.504C612.601,372.222 610.528,371.785 610.26,371.775C608.925,371.726 607.807,371.908 606.87,372.245C606.479,370.729 605.509,368.878 603.099,367.221C596.309,362.549 571.916,353.019 563.809,351.426C559.477,350.574 555.268,353.4 554.416,357.732C553.565,362.065 556.391,366.274 560.723,367.125C563.65,367.701 569.092,369.48 574.817,371.642ZM610.427,423.601C608.837,425.208 607.134,425.776 605.634,425.867C605.747,426.418 605.829,427.116 605.771,427.912C609.839,426.755 613.328,425.853 615.479,425.451C615.189,425.401 614.898,425.341 614.606,425.274C613.038,424.916 611.652,424.348 610.427,423.601ZM672.265,411.585L672.729,411.488L672.201,411.361L672.265,411.585Z" style="fill:rgb(0,255,101);"/>
        </g>
        <g transform="matrix(1,0,0,1,-418.452,-172.24)">
            <path d="M614.43,423.599C615.389,422.894 616.342,422.183 617.289,421.465C620.809,418.798 621.501,413.776 618.835,410.257C616.168,406.738 611.146,406.045 607.627,408.712C598.023,415.988 587.893,422.58 577.964,429.409C574.838,431.558 571.797,433.841 568.508,435.74C567.31,436.432 566.088,437.09 564.902,437.802C564.39,438.109 563.88,438.415 563.387,438.75C563.657,438.566 564.493,438.131 564.493,438.131C564.493,438.131 560.367,441.504 559.987,442.319C558.757,444.957 558.942,447.479 560.4,449.882C561.023,450.908 562.052,452.241 564.183,453.136C565.412,453.652 567.077,453.994 568.958,453.916C570.636,453.846 572.715,453.376 573.841,453.139C578.595,452.137 583.203,450.126 587.607,448.114C601.597,441.722 616.951,439.984 631.599,435.675C635.835,434.429 638.262,429.979 637.016,425.743C635.77,421.507 631.319,419.08 627.083,420.326C622.903,421.556 618.671,422.599 614.43,423.599Z" style="fill:rgb(0,255,101);"/>
        </g>
        <g transform="matrix(1,0,0,1,-418.452,-172.24)">
            <path d="M552.263,322.689C552.341,324.63 553.144,326.957 555.909,328.8C556.359,329.1 558.743,330.28 558.884,330.347C561.296,331.48 563.785,332.472 566.262,333.451C576.739,337.592 587.621,340.431 598.202,344.278C613.181,349.725 629.061,352.334 643.944,357.909C655.158,362.11 665.662,369.919 677.744,371.491C680.8,371.889 682.479,370.765 683.254,370.261C684.858,369.218 685.811,367.868 686.37,366.413C687.078,364.57 687.467,361.986 685.575,359.113C685.286,358.674 681.894,355.938 681.894,355.938C681.894,355.938 682.131,356.1 682.213,356.163C681.476,355.605 680.745,355.047 680.043,354.445C677.533,352.289 675.438,349.719 673.016,347.464C669.625,344.308 665.612,340.758 662.227,336.784C659.552,333.642 657.199,330.266 656.455,326.482C655.815,323.23 657.538,320.337 659.168,317.58C664.395,308.743 673.228,302.781 680.533,295.743C683.436,292.946 687.723,289.344 689.518,285.778C690.58,283.668 690.446,282.039 690.311,281.052C690.016,278.894 689.022,277.324 687.687,276.141C686.611,275.187 685.216,274.419 683.372,274.186C682.707,274.102 677.884,275.449 677.884,275.449C677.884,275.449 678.408,275.175 678.59,275.097C678.337,275.206 678.079,275.305 677.824,275.41C676.766,275.843 675.705,276.268 674.64,276.684C671.664,277.849 668.569,278.798 665.516,279.738C655.704,282.76 645.715,285.199 635.808,287.881C622.447,291.499 609.384,296.278 596.009,299.79C579.231,304.194 561.951,306.557 544.637,306.976C540.223,307.083 536.726,310.754 536.833,315.168C536.94,319.582 540.611,323.079 545.025,322.972C547.438,322.913 549.851,322.819 552.263,322.689Z" style="fill:rgb(39,211,107);"/>
        </g>
        <g transform="matrix(0.646604,0.61673,-0.695785,0.729488,54.9485,-397.064)">
            <path d="M483.326,366.914C483.326,366.914 680.596,287.074 692.889,288.738C697.418,289.352 585.151,454.943 585.151,454.943C585.151,454.943 598.322,383.246 581.351,368.574C564.381,353.903 483.326,366.914 483.326,366.914Z" style="fill:none;stroke:black;stroke-width:9.25px;"/>
        </g>
        <g transform="matrix(-0.629952,-0.633729,0.714964,-0.710702,341.326,785.213)">
            <path d="M483.326,366.914C483.326,366.914 680.596,287.074 692.889,288.738C697.418,289.352 585.151,454.943 585.151,454.943C585.151,454.943 598.322,383.246 581.351,368.574C564.381,353.903 483.326,366.914 483.326,366.914Z" style="fill:none;stroke:black;stroke-width:9.25px;"/>
        </g>
    </g>
</svg>
